<?xml version="1.0" encoding="iso-8859-1"?><!DOCTYPE svg PUBLIC "-//W3C//DTD SVG 1.1//EN" "http://www.w3.org/Graphics/SVG/1.1/DTD/svg11.dtd"><svg width="1028" height="918" viewBox="0 0 1028 918" xmlns="http://www.w3.org/2000/svg" xmlns:xlink="http://www.w3.org/1999/xlink"><svg viewBox="-1 -1 514 514" width="514" height="514" id="mail" xmlns="http://www.w3.org/2000/svg"><path d="M10.688 95.156C80.958 154.667 204.26 259.365 240.5 292.01c4.865 4.406 10.083 6.646 15.5 6.646 5.406 0 10.615-2.219 15.469-6.604 36.271-32.677 159.573-137.385 229.844-196.896 4.375-3.698 5.042-10.198 1.5-14.719C494.625 69.99 482.417 64 469.333 64H42.667c-13.083 0-25.292 5.99-33.479 16.438-3.542 4.52-2.875 11.02 1.5 14.718zM505.813 127.406a10.618 10.618 0 00-11.375 1.542c-46.021 39.01-106.656 90.552-152.385 129.885a10.654 10.654 0 00-3.708 8.271 10.644 10.644 0 004 8.135c42.49 34.031 106.521 80.844 152.76 114.115a10.626 10.626 0 006.229 2.01c1.667 0 3.333-.385 4.865-1.177a10.66 10.66 0 005.802-9.49V137.083a10.663 10.663 0 00-6.188-9.677zM16.896 389.354c46.25-33.271 110.292-80.083 152.771-114.115a10.646 10.646 0 004-8.135 10.654 10.654 0 00-3.708-8.271C124.229 219.5 63.583 167.958 17.563 128.948a10.674 10.674 0 00-11.375-1.542A10.66 10.66 0 000 137.083v243.615c0 4 2.24 7.667 5.802 9.49a10.566 10.566 0 004.865 1.177 10.62 10.62 0 006.229-2.011z"/><path d="M498.927 418.375c-44.656-31.948-126.917-91.51-176.021-131.365-4-3.26-9.792-3.156-13.729.24-9.635 8.406-17.698 15.49-23.417 20.635-17.563 15.854-41.938 15.854-59.542-.021-5.698-5.135-13.76-12.24-23.396-20.615-3.906-3.417-9.708-3.521-13.719-.24-48.938 39.719-131.292 99.354-176.021 131.365a10.703 10.703 0 00-4.406 7.604 10.67 10.67 0 002.802 8.333C19.552 443.01 30.927 448 42.667 448h426.667c11.74 0 23.104-4.99 31.198-13.688a10.676 10.676 0 002.802-8.323 10.73 10.73 0 00-4.407-7.614z"/></svg><svg width="514" height="514" viewBox="-1 -1 514 514" id="map" x="514" xmlns="http://www.w3.org/2000/svg"><path d="M256 0C167.641 0 96 71.625 96 160c0 24.75 5.625 48.219 15.672 69.125C112.234 230.313 256 512 256 512l142.594-279.375C409.719 210.844 416 186.156 416 160 416 71.625 344.375 0 256 0zm0 256c-53.016 0-96-43-96-96s42.984-96 96-96c53 0 96 43 96 96s-43 96-96 96z"/></svg><svg width="404" height="404" viewBox="-1 -1 404 404" id="phone" y="514" xmlns="http://www.w3.org/2000/svg"><path d="M401.129 311.475c-1.137-3.426-8.371-8.473-21.697-15.129-3.61-2.098-8.754-4.949-15.41-8.566a1437.412 1437.412 0 01-18.13-9.996 605.612 605.612 0 01-15.276-8.846c-.76-.571-3.139-2.234-7.136-5-4.001-2.758-7.375-4.805-10.14-6.14-2.759-1.327-5.473-1.995-8.138-1.995-3.806 0-8.56 2.714-14.268 8.135a139.01 139.01 0 00-15.7 17.706c-4.757 6.379-9.802 12.275-15.126 17.7-5.332 5.427-9.713 8.138-13.135 8.138-1.718 0-3.86-.479-6.427-1.424-2.566-.951-4.518-1.766-5.858-2.423-1.328-.671-3.607-1.999-6.845-4.004-3.244-1.999-5.048-3.094-5.428-3.285-26.075-14.469-48.438-31.029-67.093-49.676-18.649-18.658-35.211-41.019-49.676-67.097-.19-.381-1.287-2.19-3.284-5.424-2-3.237-3.333-5.518-3.999-6.854-.666-1.331-1.475-3.283-2.425-5.852s-1.427-4.709-1.427-6.424c0-3.424 2.713-7.804 8.138-13.134 5.424-5.327 11.326-10.373 17.7-15.128a138.95 138.95 0 0017.701-15.699c5.424-5.711 8.136-10.467 8.136-14.273 0-2.663-.666-5.378-1.997-8.137-1.332-2.765-3.378-6.139-6.139-10.138-2.762-3.997-4.427-6.374-4.999-7.139a627.13 627.13 0 01-8.848-15.271 1441.4 1441.4 0 01-9.995-18.131c-3.615-6.658-6.468-11.799-8.564-15.415C98.986 9.233 93.943 1.997 90.516.859 89.183.288 87.183 0 84.521 0c-5.142 0-11.85.95-20.129 2.856-8.282 1.903-14.799 3.899-19.558 5.996-9.517 3.995-19.604 15.605-30.264 34.826C4.863 61.566.01 79.271.01 96.78c0 5.135.333 10.131.999 14.989.666 4.853 1.856 10.326 3.571 16.418 1.712 6.09 3.093 10.614 4.137 13.56 1.045 2.948 2.996 8.229 5.852 15.845 2.852 7.614 4.567 12.275 5.138 13.988 6.661 18.654 14.56 35.307 23.695 49.964 15.03 24.362 35.541 49.539 61.521 75.521 25.981 25.98 51.153 46.49 75.517 61.526 14.655 9.134 31.314 17.032 49.965 23.698 1.714.568 6.375 2.279 13.986 5.141 7.614 2.854 12.897 4.805 15.845 5.852 2.949 1.048 7.474 2.43 13.559 4.145 6.098 1.715 11.566 2.905 16.419 3.576 4.856.657 9.853.996 14.989.996 17.508 0 35.214-4.856 53.105-14.562 19.219-10.656 30.826-20.745 34.823-30.269 2.102-4.754 4.093-11.273 5.996-19.555 1.909-8.278 2.857-14.985 2.857-20.126.006-2.673-.281-4.668-.855-6.012z"/></svg></svg>